<?xml version="1.0" encoding="UTF-8" standalone="no"?>
<!DOCTYPE svg PUBLIC "-//W3C//DTD SVG 1.1//EN" "http://www.w3.org/Graphics/SVG/1.1/DTD/svg11.dtd">
<svg width="100%" height="100%" viewBox="0 0 128 67" version="1.1" xmlns="http://www.w3.org/2000/svg" xmlns:xlink="http://www.w3.org/1999/xlink" xml:space="preserve" xmlns:serif="http://www.serif.com/" style="fill-rule:evenodd;clip-rule:evenodd;stroke-linecap:round;stroke-linejoin:round;stroke-miterlimit:1.5;">
    <g id="Lines">
        <g id="Lines1" serif:id="Lines">
            <path d="M89.629,37.563C92.371,34.995 97.854,29.859 97.854,29.859C97.854,29.859 103.747,29.777 106.694,29.736" style="fill:none;stroke:rgb(44,242,154);stroke-width:1px;"/>
            <g transform="matrix(1,0,0,1,-23.108161,-6.027173)">
                <path d="M101.966,29.859C101.966,29.859 105.237,29.896 106.872,29.915" style="fill:none;stroke:rgb(44,242,154);stroke-width:1px;"/>
            </g>
            <path d="M78.395,34.386L86.621,34.386C86.621,34.386 90.309,30.698 92.153,28.854" style="fill:none;stroke:rgb(44,242,154);stroke-width:1px;"/>
            <path d="M106.694,23.751L89.629,23.751L85.274,28.854L71.091,28.854L65.654,23.418L56.082,23.418" style="fill:none;stroke:rgb(44,242,154);stroke-width:1px;"/>
            <path d="M61.533,45.344L52.853,45.344L49.52,42.011L42.782,42.011" style="fill:none;stroke:rgb(44,242,154);stroke-width:1px;"/>
        </g>
        <g id="Dots">
            <g transform="matrix(1,0,0,1,0,-0.377145)">
                <circle cx="106.869" cy="24.034" r="1.487" style="fill:rgb(44,242,154);stroke:rgb(44,242,154);stroke-width:1px;"/>
            </g>
            <g transform="matrix(1,0,0,1,-28.010878,-0.146094)">
                <circle cx="106.869" cy="24.034" r="1.487" style="fill:rgb(44,242,154);stroke:rgb(44,242,154);stroke-width:1px;"/>
            </g>
            <g transform="matrix(1,0,0,1,0,5.735749)">
                <circle cx="106.869" cy="24.034" r="1.487" style="fill:rgb(44,242,154);stroke:rgb(44,242,154);stroke-width:1px;"/>
            </g>
            <g transform="matrix(1,0,0,1,-28.351872,10.352402)">
                <circle cx="106.869" cy="24.034" r="1.487" style="fill:rgb(44,242,154);stroke:rgb(44,242,154);stroke-width:1px;"/>
            </g>
            <g transform="matrix(1,0,0,1,-50.78702,-0.616408)">
                <circle cx="106.869" cy="24.034" r="1.487" style="fill:rgb(44,242,154);stroke:rgb(44,242,154);stroke-width:1px;"/>
            </g>
            <g transform="matrix(1,0,0,1,-50.78702,-0.616408)">
                <circle cx="106.869" cy="24.034" r="1.487" style="fill:rgb(44,242,154);stroke:rgb(44,242,154);stroke-width:1px;"/>
            </g>
            <g transform="matrix(1,0,0,1,-64.343583,17.90999)">
                <circle cx="106.869" cy="24.034" r="1.487" style="fill:rgb(44,242,154);stroke:rgb(44,242,154);stroke-width:1px;"/>
            </g>
            <g transform="matrix(1,0,0,1,-45.462101,21.398723)">
                <circle cx="106.869" cy="24.034" r="1.487" style="fill:rgb(44,242,154);stroke:rgb(44,242,154);stroke-width:1px;"/>
            </g>
            <g transform="matrix(1,0,0,1,-14.410093,4.249098)">
                <circle cx="106.869" cy="24.034" r="1.487" style="fill:rgb(44,242,154);stroke:rgb(44,242,154);stroke-width:1px;"/>
            </g>
        </g>
    </g>
    <g id="LSP">
        <path id="P" d="M88.086,20.909L82.712,26.91L82.712,11.447C82.712,11.447 82.742,10.284 83.576,9.586C83.969,9.257 86.635,9.072 86.635,9.072L99.993,8.896C106.541,8.896 110.81,9.568 112.798,10.175C115.854,11.086 118.413,12.906 120.474,15.956C122.536,19.007 123.567,21.958 123.567,26.789C123.567,30.516 123.068,33.144 121.88,35.683C120.692,38.223 118.441,40.292 116.61,41.741C114.779,43.191 113.562,43.729 111.671,44.198C109.1,44.778 105.377,45.253 100.502,45.253L93.481,45.276L93.481,56.091C93.481,56.091 93.44,57.784 92.301,58.832C91.161,59.879 89.965,59.877 89.965,59.877L82.712,59.877L82.712,37.777C82.712,37.777 86.324,37.654 87.234,37.571C89.284,37.385 92.234,34.626 92.713,34.386C92.758,34.364 93.276,34.241 93.481,33.965L93.481,35.61L99.374,35.61C103.619,35.61 106.456,35.292 107.887,34.657C109.318,34.022 110.44,33.028 111.252,31.676C112.065,30.323 112.471,28.749 112.471,26.955C112.471,24.746 111.901,22.924 110.761,21.489C109.621,20.053 108.178,19.156 106.432,18.797C105.146,18.521 102.564,18.383 98.683,18.383L93.481,18.383L93.481,20.872C88.609,20.872 88.086,20.909 88.086,20.909Z" style="fill:rgb(44,242,154);"/>
        <g id="S" transform="matrix(1.039215,0,0,0.900064,29.179413,5.730475)">
            <path d="M9.48,54.034C9.48,54.034 9.477,50.861 10.069,49.432C10.666,47.987 13.067,45.366 13.067,45.366C13.067,45.366 22.238,54.628 33.507,48.944C35.445,47.966 36.866,45.58 36.866,43.619C36.866,42.359 36.649,41.408 35.937,40.524C35.225,39.64 34.121,38.951 32.347,38.297C31.134,37.861 29.441,36.766 25.123,35.652C19.569,34.223 15.671,32.467 13.431,30.385C10.28,27.454 9.453,23.943 9.354,19.73C9.166,11.741 14.946,7.419 17.659,5.976C33.385,-2.388 45.485,7.39 45.485,7.39L40.747,17.353C38.303,14.741 31.706,13.461 28.789,13.461C25.778,13.461 21.961,14.352 20.257,15.636C19.161,16.459 18.612,17.561 18.612,18.941C18.612,20.201 19.125,21.279 20.152,22.175C21.459,23.313 24.72,24.999 29.761,26.234C34.802,27.469 38.4,28.947 40.816,30.267C43.231,31.586 44.646,32.731 46.011,35.02C47.376,37.309 47.782,40.176 47.782,43.542C47.782,46.594 47.346,49.132 45.712,51.796C44.079,54.46 42.183,56.68 39.196,57.975C36.209,59.271 28.346,62.76 14.742,58.248C10.403,56.809 9.48,54.034 9.48,54.034Z" style="fill:rgb(44,242,154);fill-rule:nonzero;"/>
        </g>
        <g id="L" transform="matrix(1.039215,0,0,0.960212,-4.079091,2.203944)">
            <path d="M9.755,34.835L9.755,10.696C14.048,7.007 16.018,7.045 20.117,11.069L20.117,50.001L38.485,50.001C37.176,54.328 37.457,57.394 39.609,58.974L12.14,58.782C12.14,58.782 11.191,58.642 10.547,57.853C9.929,57.096 9.955,56.319 9.955,56.319L9.755,34.835" style="fill:rgb(44,242,154);fill-rule:nonzero;"/>
        </g>
    </g>
</svg>
